<svg xmlns="http://www.w3.org/2000/svg" xmlns:xlink="http://www.w3.org/1999/xlink" viewBox="0 0 170 170"><defs><style>.cls-1{fill:none;}.cls-2{fill:#827977;}.cls-3{fill:#7b7270;}.cls-4{clip-path:url(#clip-path);}.cls-5{fill:#2a2d34;}.cls-6{fill:#d9a78c;}.cls-7{fill:#eac0a7;}.cls-8{fill:#f2d7bc;}.cls-9{fill:#690102;}.cls-10{fill:#2f343a;}.cls-11{fill:#b9c7d0;}.cls-12{fill:#129e95;}.cls-13{fill:#3a404c;}.cls-14{fill:#fff;}</style><clipPath id="clip-path"><circle class="cls-1" cx="85" cy="85" r="85"/></clipPath></defs><title>Artboard 4</title><g id="Objects"><g id="men_3" data-name="men 3"><circle class="cls-2" cx="85" cy="85" r="85"/><path class="cls-3" d="M170,85A85,85,0,0,0,85,0V170A85,85,0,0,0,170,85Z"/><g class="cls-4"><path class="cls-5" d="M100.47,122.7s23.67,3.46,27.16,7.1c3,3.17,9.37,33.54,10.84,40.2H85V126.88Z"/><rect class="cls-6" x="72.55" y="107" width="24.89" height="27.29"/><path class="cls-7" d="M85,28.33c12.09,0,31.2,6.87,31.2,39.07,0,18.59-6.06,30.77-8.7,34.14-2.43,3.1-16.09,9.71-22.5,9.71Z"/><path class="cls-7" d="M122.21,75.08c.53-5.14-1.92-9.71-5.47-10.2s-6.87,3.29-7.4,8.43,1.92,9.71,5.47,10.2S121.68,80.22,122.21,75.08Z"/><path class="cls-8" d="M85,28.33c-12.09,0-31.2,6.87-31.2,39.07,0,18.59,6.06,30.77,8.7,34.14,2.43,3.1,16.09,9.71,22.5,9.71Z"/><path class="cls-8" d="M47.79,75.08c-.53-5.14,1.92-9.71,5.47-10.2s6.87,3.29,7.4,8.43S58.75,83,55.19,83.51,48.32,80.22,47.79,75.08Z"/><path class="cls-9" d="M68.72,35.07s-10.56,12.53-6.51,24.2c.67,13.92-.67,18.64-5.17,22.46,1.12-13.48-.22-18-5.16-16.4C49.86,54.78,54.22,26.34,68.72,35.07Z"/><path class="cls-9" d="M101.2,35.07s10.56,12.53,6.51,24.2c-.67,13.92.67,18.64,5.17,22.46-1.12-13.48.22-18,5.17-16.4C120.06,54.78,115.7,26.34,101.2,35.07Z"/><path class="cls-10" d="M69.53,122.7s-23.67,3.46-27.16,7.1C39.33,133,33,163.34,31.54,170H85V126.88Z"/><polyline class="cls-11" points="100.75 122.07 85 125.3 69.25 122.07 85 170"/><polygon class="cls-12" points="83.69 131.76 81.12 164.18 85 170 88.88 164.18 86.31 131.76 83.69 131.76"/><path class="cls-13" d="M73.64,142.76,61.12,124.18a61,61,0,0,1,11-2.81L85,170l-18.1-25.91Z"/><path class="cls-13" d="M96.36,142.76l12.53-18.58a61,61,0,0,0-11-2.81L85,170l18.1-25.91Z"/><path class="cls-12" d="M89.25,129.68,85,134.06l-4.25-4.38L85,125.3Z"/><polygon class="cls-14" points="85 125.3 97.64 118.91 104.15 122.7 90.62 133.52 85 125.3"/><polygon class="cls-14" points="85 125.3 72.36 118.91 65.85 122.7 79.15 133.52 85 125.3"/><path class="cls-9" d="M114.82,40.56c-5-20.43-35.26-36.48-56.55-4.41-1.37,6.33,4.58,9.29,4.58,9.29s4-9.29,22.19-5c9.07-2,17.91-3.46,22,4.93S114.82,40.56,114.82,40.56Z"/><path class="cls-9" d="M102.88,97.45c-6.25,0-10.72-5.08-17.88-5.08s-11.63,5.08-17.88,5.08C60.27,97.45,56,85.64,54.66,81.5c1.77,11.91,5.81,19.71,7.84,22.3,2.43,3.1,16.09,9.7,22.5,9.71h0c6.41,0,20.07-6.61,22.5-9.71,2-2.59,6.08-10.4,7.84-22.31C114,85.62,109.74,97.45,102.88,97.45Z"/><path class="cls-14" d="M85,103.13c2.11,0,3.81-.89,3.81-2H81.19C81.19,102.24,82.89,103.13,85,103.13Z"/></g></g></g></svg>