<?xml version="1.0" encoding="utf-8"?>
<!-- Generator: Adobe Illustrator 21.0.0, SVG Export Plug-In . SVG Version: 6.00 Build 0)  -->
<svg version="1.1" id="Layer_1" xmlns="http://www.w3.org/2000/svg" xmlns:xlink="http://www.w3.org/1999/xlink" x="0px" y="0px"
	 viewBox="0 0 128 122" style="enable-background:new 0 0 128 122;" xml:space="preserve">
<style type="text/css">
	.st0{fill:#FF6719;}
</style>
<g>
	<circle class="st0" cx="64" cy="19.4" r="12.3"/>
	<g>
		<path class="st0" d="M25.2,39.3c-0.1-0.6-0.6-0.9-1.2-1.1c-0.6-0.2-1.4-0.3-2.2-0.3c-1.8,0-2.7,0.3-2.7,0.9
			c0,2.4,14.7,0.9,14.7,6.8c0,3.7-4.9,5.6-12,5.6c-6.7,0-11.2-2.5-11.3-5.4h8c0.2,0.6,0.7,1,1.4,1.3c0.7,0.3,1.6,0.4,2.4,0.4
			c2.1,0,3.5-0.4,3.5-1.2c0-2.4-14.7-0.8-14.7-6.9c0-3.4,4.7-5.2,11.1-5.2c7.1,0,10.3,2.3,10.9,5.1H25.2z"/>
		<path class="st0" d="M37.7,50.8V34.7h20.9v3.8H46.1v2.3h10.5v3.8H46.1V47h13v3.8H37.7z"/>
		<path class="st0" d="M80.1,43.5l-0.3-3.7v-5.1h8v16.1h-7.9L70.8,42l0.3,3.7v5.1h-8V34.7h7.9L80.1,43.5z"/>
		<path class="st0" d="M90.6,50.8l9.2-16.1h8.5l9.2,16.1h-8.3l-1-2.1h-8.3l-1,2.1H90.6z M104,39.5l-2.6,5.8h5.3L104,39.5z"/>
	</g>
	<g>
		<polygon class="st0" points="119.3,54.3 68.1,54.3 97.9,107.3 104.5,101.5 80.6,61.7 119.6,61.6 		"/>
		<polygon class="st0" points="8.7,54.3 59.9,54.3 30.1,107.3 23.5,101.5 47.4,61.7 8.4,61.6 		"/>
		<polygon class="st0" points="35.8,111.5 63.8,63.3 92.5,111.1 84.9,114.5 64.4,77.8 42.5,114.9 		"/>
	</g>
</g>
</svg>
